<?xml version="1.0" standalone="no"?>
<!DOCTYPE svg PUBLIC "-//W3C//DTD SVG 20010904//EN"
 "http://www.w3.org/TR/2001/REC-SVG-20010904/DTD/svg10.dtd">
<svg version="1.0" xmlns="http://www.w3.org/2000/svg"
 width="700.000000pt" height="700.000000pt" viewBox="0 0 700.000000 700.000000"
 preserveAspectRatio="xMidYMid meet">
<metadata>
Created by potrace 1.11, written by Peter Selinger 2001-2013
</metadata>
<g transform="translate(0.000000,700.000000) scale(0.100000,-0.100000)"
fill="#000000" stroke="none">
<path d="M0 3500 l0 -3500 3500 0 3500 0 0 3500 0 3500 -3500 0 -3500 0 0
-3500z m945 2008 l40 -63 3 63 c5 107 32 62 32 -54 0 -46 6 -63 38 -111 l37
-56 3 142 c2 107 6 141 15 138 9 -3 13 -49 15 -167 l3 -163 36 -51 c20 -28 41
-55 46 -61 6 -6 8 74 6 212 -3 143 0 224 6 225 6 2 13 -89 17 -246 l8 -250 35
-53 c19 -29 38 -53 41 -53 3 0 4 136 3 302 -2 205 0 303 7 305 11 4 24 -292
24 -542 l0 -121 55 -79 c58 -83 63 -95 43 -95 -7 0 -31 28 -53 62 l-40 63 -3
-63 c-4 -89 -22 -77 -22 15 0 73 -2 79 -42 142 l-43 65 -3 -142 c-4 -227 -32
-166 -32 71 l0 119 -37 52 c-20 28 -39 54 -42 58 -3 4 -5 -94 -3 -217 3 -194
2 -225 -11 -225 -13 0 -16 37 -18 248 l-4 249 -38 56 c-20 32 -40 57 -44 57
-3 0 -3 -137 0 -305 6 -257 5 -305 -7 -305 -11 0 -15 59 -21 335 l-7 335 -54
77 c-48 68 -57 93 -36 93 4 0 25 -28 47 -62z m603 0 l42 -62 0 63 c0 46 3 62
13 59 8 -3 14 -34 17 -89 5 -77 8 -89 44 -141 21 -32 40 -58 42 -58 2 0 3 62
1 138 -1 85 2 138 8 140 6 1 12 -59 15 -160 l5 -163 39 -57 c21 -32 41 -58 44
-58 2 0 3 100 1 222 -3 156 -1 222 7 225 8 3 13 -71 18 -248 l8 -253 39 -58
c22 -32 41 -58 42 -58 1 0 0 139 -2 310 -2 192 1 310 6 310 13 0 23 -204 23
-458 l0 -203 50 -74 c57 -84 67 -105 52 -105 -6 0 -30 27 -53 60 -23 33 -43
60 -45 60 -2 0 -1 -27 3 -60 5 -52 4 -60 -11 -60 -13 0 -16 12 -16 79 0 76 -1
81 -42 142 l-43 64 -3 -142 c-1 -79 -6 -143 -11 -143 -5 0 -12 75 -16 167 l-7
167 -37 55 -36 54 -3 -221 c-2 -212 -12 -276 -26 -176 -3 26 -6 137 -6 248 l0
201 -45 64 -45 65 7 -312 c6 -287 5 -312 -10 -312 -15 0 -17 20 -17 188 -1
103 -3 254 -6 335 l-6 148 -54 78 c-47 69 -56 92 -35 91 3 0 25 -28 49 -62z
m598 5 l39 -58 5 55 c8 83 24 66 30 -30 5 -87 9 -98 73 -180 19 -25 19 -25 16
119 -3 101 -1 145 7 148 8 3 13 -46 16 -164 l5 -168 41 -59 42 -59 0 226 c0
125 4 227 8 227 10 0 22 -202 22 -376 l0 -122 41 -61 c22 -33 42 -61 43 -61 1
0 0 140 -2 310 -3 226 -2 310 7 310 6 0 12 -1 13 -2 1 -2 4 -152 7 -334 l6
-330 53 -76 c28 -42 52 -81 52 -87 0 -25 -22 -7 -57 46 l-38 57 -3 -57 c-2
-42 -7 -57 -17 -57 -12 0 -15 17 -15 80 0 79 -1 82 -46 148 l-46 67 5 -147 c5
-120 3 -148 -8 -148 -10 0 -14 35 -17 164 l-3 164 -40 58 -40 58 -3 -222 c-1
-122 -6 -222 -11 -222 -9 0 -21 203 -21 374 l0 120 -41 63 c-23 35 -42 63 -44
63 -1 0 0 -139 3 -310 3 -227 2 -310 -7 -310 -6 0 -12 1 -13 3 0 1 -4 151 -7
332 l-6 330 -57 82 c-51 73 -59 93 -38 93 4 0 25 -26 46 -57z m607 -155 c10
-298 9 -628 -2 -628 -11 0 -20 239 -22 565 -1 291 -2 275 9 275 5 0 12 -95 15
-212z m111 40 c12 -354 12 -668 1 -668 -8 0 -14 68 -18 227 -10 319 -9 613 2
613 5 0 12 -78 15 -172z m110 130 c3 -24 7 -213 10 -420 4 -303 2 -378 -8
-378 -10 0 -14 56 -19 248 -10 353 -9 592 2 592 6 0 12 -19 15 -42z m131
-2089 l19 -220 168 -140 c151 -125 185 -159 160 -159 -5 0 -77 57 -161 126
-84 69 -155 124 -158 121 -3 -3 2 -94 12 -202 9 -108 14 -200 11 -203 -16 -16
-25 30 -40 223 -14 165 -21 214 -34 228 -9 11 -85 76 -169 145 -132 109 -173
152 -147 152 4 0 56 -42 118 -93 61 -50 133 -110 160 -131 l48 -39 -7 94 c-3
52 -11 135 -16 184 -12 120 -11 135 4 135 9 0 18 -57 32 -221z m-420 -251 l19
-221 168 -139 c155 -129 184 -158 159 -158 -6 0 -79 57 -162 126 -84 70 -155
121 -157 115 -2 -7 4 -98 13 -202 9 -105 14 -193 11 -197 -16 -16 -25 30 -40
223 -10 115 -19 212 -22 216 -2 5 -79 70 -169 145 -91 75 -165 141 -165 146 0
21 32 -1 173 -118 108 -89 153 -121 155 -110 2 9 -4 95 -12 190 -19 210 -19
206 -3 206 9 0 18 -58 32 -222z m-430 -135 c4 -60 12 -160 19 -223 l11 -115
162 -135 c189 -158 177 -146 169 -159 -4 -6 -75 47 -164 120 -110 91 -158 125
-160 114 -2 -8 4 -94 12 -189 19 -211 19 -206 2 -206 -9 0 -15 25 -19 93 -4
50 -12 150 -19 220 l-11 128 -169 140 c-154 129 -184 159 -159 159 5 0 78 -57
162 -126 113 -93 155 -123 157 -110 2 9 -4 95 -12 190 -19 211 -19 206 -2 206
10 0 15 -27 21 -107z m-412 -354 c9 -112 20 -213 22 -224 3 -11 80 -81 170
-155 143 -117 187 -161 158 -159 -5 0 -78 58 -163 129 -123 102 -156 125 -158
110 -2 -10 4 -96 12 -190 19 -206 19 -200 3 -200 -10 0 -17 55 -30 218 l-18
217 -37 32 c-20 18 -96 81 -169 140 -116 95 -152 133 -125 133 4 0 76 -57 160
-126 84 -69 156 -124 159 -121 3 3 -2 90 -11 194 -19 225 -19 216 -3 211 8 -3
17 -68 30 -209z m2574 -496 l38 -57 3 57 c2 42 7 57 17 57 12 0 15 -17 15 -81
0 -77 1 -82 40 -140 23 -32 43 -59 47 -59 3 0 3 63 0 140 -4 110 -2 140 8 140
10 0 14 -39 17 -164 l4 -163 39 -58 40 -57 3 221 c1 121 6 221 11 221 9 0 21
-204 21 -376 l0 -121 41 -59 c23 -32 42 -60 44 -62 1 -1 0 137 -3 308 -4 228
-2 310 7 310 6 0 12 -1 13 -2 1 -2 4 -151 7 -333 l6 -330 58 -82 c37 -52 53
-84 46 -88 -13 -9 -16 -5 -63 65 l-36 55 0 -58 c0 -44 -3 -57 -15 -57 -12 0
-15 15 -15 77 0 73 -2 80 -41 140 -23 35 -44 63 -47 63 -3 0 -2 -63 1 -140 4
-111 2 -140 -8 -140 -10 0 -14 37 -16 163 l-4 162 -42 59 -43 59 0 -221 c0
-122 -4 -222 -8 -222 -11 0 -22 195 -22 367 l0 124 -40 60 c-23 32 -42 59 -44
59 -1 0 0 -137 2 -305 3 -223 2 -305 -7 -305 -6 0 -12 1 -13 3 -1 1 -4 149 -7
329 l-6 327 -52 75 c-29 42 -53 80 -53 86 0 24 23 6 57 -47z m589 0 l39 -57 3
57 c2 42 7 57 17 57 12 0 15 -17 15 -83 0 -82 1 -85 41 -140 22 -32 42 -57 44
-57 3 0 2 63 -2 140 -5 126 -4 140 10 140 15 0 17 -18 17 -160 l0 -161 46 -67
46 -67 -4 228 c-3 165 -1 227 8 227 8 0 13 -74 18 -252 l8 -253 36 -50 c19
-27 38 -53 41 -57 3 -4 4 132 2 302 -2 192 1 310 6 310 13 0 23 -204 23 -456
l0 -201 56 -83 c34 -50 52 -86 47 -91 -6 -6 -24 12 -48 46 -21 31 -42 58 -47
61 -4 3 -5 -19 -2 -50 6 -48 4 -56 -10 -56 -13 0 -16 12 -16 78 0 75 -1 79
-45 141 l-45 65 0 -142 c0 -78 -4 -142 -9 -142 -5 0 -12 74 -16 164 l-7 164
-39 59 -39 58 0 -222 c0 -123 -4 -223 -9 -223 -15 0 -21 72 -21 279 l0 205
-41 63 c-23 35 -43 63 -45 63 -3 0 -2 -137 2 -305 6 -279 6 -305 -10 -305 -14
0 -16 19 -16 173 0 94 -3 244 -7 332 l-5 160 -54 78 c-30 43 -54 80 -54 83 0
2 6 4 13 4 8 0 31 -26 53 -57z m593 -5 l41 -63 0 63 c0 34 4 62 9 62 11 0 21
-51 21 -114 0 -43 6 -61 40 -111 l40 -60 0 143 c0 119 2 142 15 142 13 0 15
-25 15 -163 l0 -163 46 -65 46 -64 -7 228 c-5 192 -4 227 8 227 11 0 15 -45
20 -250 l7 -250 38 -57 37 -57 3 35 c2 19 2 157 0 307 -2 192 0 272 8 272 11
0 24 -293 24 -543 l0 -119 56 -80 c37 -53 53 -83 46 -90 -7 -7 -25 12 -53 54
l-44 63 -3 -57 c-4 -84 -22 -71 -22 15 0 70 -2 77 -42 138 l-43 64 -3 -137
c-2 -135 -13 -176 -26 -100 -3 20 -6 92 -6 160 l0 123 -40 60 c-23 32 -42 59
-43 59 -1 0 0 -99 1 -220 3 -196 2 -220 -12 -220 -14 0 -16 23 -16 194 0 273
-4 300 -52 367 l-40 54 6 -307 c5 -257 4 -308 -8 -308 -11 0 -15 62 -21 332
l-7 332 -54 77 c-58 83 -61 89 -40 89 7 0 32 -28 55 -62z"/>
</g>
</svg>
